<?xml version="1.0" standalone="no"?>
<!DOCTYPE svg PUBLIC "-//W3C//DTD SVG 20010904//EN"
 "http://www.w3.org/TR/2001/REC-SVG-20010904/DTD/svg10.dtd">
<svg version="1.0" xmlns="http://www.w3.org/2000/svg"
 width="512.000000pt" height="512.000000pt" viewBox="0 0 512.000000 512.000000"
 preserveAspectRatio="xMidYMid meet">
<metadata>
Created by potrace 1.11, written by Peter Selinger 2001-2013
</metadata>
<g transform="translate(0.000000,512.000000) scale(0.100000,-0.100000)"
fill="#000000" stroke="none">
<path d="M1943 4632 l0 -300 296 -296 297 -296 298 299 299 299 1 296 c1 163
0 296 0 296 -1 0 -135 -133 -298 -297 l-298 -296 -297 297 -298 298 0 -300z"/>
<path d="M770 4257 c0 -1 9 -36 21 -77 11 -41 22 -83 24 -92 2 -9 13 -51 25
-93 12 -42 23 -85 25 -96 2 -10 16 -63 30 -116 15 -54 29 -109 32 -122 2 -14
6 -28 9 -33 3 -4 7 -17 10 -28 5 -26 10 -45 27 -107 10 -37 11 -53 3 -54 -21
-1 -91 -19 -326 -84 -52 -14 -106 -28 -120 -31 -14 -2 -45 -11 -70 -18 -39
-12 -75 -22 -115 -31 -5 -2 -39 -11 -75 -20 -36 -10 -71 -18 -77 -18 -19 0
-16 -17 4 -24 9 -4 46 -25 83 -46 74 -46 279 -165 357 -209 l53 -29 132 36
c73 20 140 38 148 39 8 2 35 9 60 16 25 7 53 14 62 16 26 6 47 11 108 29 30 9
62 17 70 19 8 2 35 9 60 16 25 7 52 14 60 15 99 23 120 41 99 86 -5 9 -11 29
-14 45 -3 16 -12 54 -20 84 -28 98 -47 165 -50 180 -2 8 -11 40 -19 72 -8 31
-17 68 -20 82 -3 14 -7 29 -10 34 -3 5 -7 19 -10 33 -3 13 -14 58 -26 99 -11
41 -23 86 -26 100 -6 27 -22 50 -35 50 -7 0 -34 15 -151 85 -9 5 -41 23 -70
39 -29 16 -65 37 -80 47 -14 11 -28 19 -31 19 -3 0 -39 20 -81 45 -42 24 -76
44 -76 42z"/>
<path d="M4245 4220 c-28 -15 -95 -54 -150 -85 -55 -32 -111 -64 -125 -72
-168 -95 -183 -107 -195 -153 -7 -25 -23 -83 -36 -130 -13 -47 -23 -87 -22
-90 0 -3 -4 -16 -9 -30 -5 -14 -12 -36 -14 -50 -3 -14 -9 -36 -14 -50 -5 -14
-11 -34 -13 -45 -2 -11 -9 -40 -16 -65 -7 -25 -15 -52 -17 -60 -2 -8 -17 -67
-33 -130 -17 -63 -28 -116 -26 -118 2 -2 21 -8 42 -13 21 -5 45 -11 53 -13 23
-6 169 -46 230 -63 61 -17 155 -42 183 -48 9 -2 21 -6 25 -9 5 -3 19 -7 33
-10 13 -3 69 -17 124 -32 55 -14 105 -27 111 -27 5 0 64 30 130 68 65 37 132
75 147 84 16 9 36 21 45 26 10 6 57 32 105 59 85 48 104 66 71 66 -16 0 -123
28 -192 51 -18 6 -42 12 -55 15 -37 7 -57 12 -172 44 -60 17 -117 32 -125 34
-8 2 -35 9 -60 16 -25 7 -49 13 -55 14 -5 1 -36 10 -67 19 -44 14 -58 22 -58
37 0 10 5 22 10 25 6 4 8 10 6 14 -3 3 4 38 15 76 11 39 22 77 24 85 2 8 13
50 25 92 11 43 23 85 25 95 3 10 9 36 15 58 6 22 13 47 15 55 2 8 4 15 5 15 2
0 5 14 14 52 3 13 17 66 31 119 14 53 25 98 23 99 -2 2 -26 -9 -53 -25z"/>
<path d="M1939 3722 c0 -10 -1 -142 -1 -295 l-1 -279 189 -190 c104 -105 238
-241 298 -301 61 -61 103 -108 94 -104 -9 3 -34 9 -55 13 -21 4 -44 11 -50 17
-7 5 -13 7 -13 3 0 -3 -12 -1 -27 5 -16 6 -39 13 -52 15 -13 3 -72 19 -130 35
-58 17 -115 32 -126 33 -11 2 -27 6 -35 9 -15 6 -203 57 -230 62 -8 2 -27 8
-42 14 -32 12 -45 6 -335 -162 -111 -64 -208 -117 -215 -118 -14 0 26 -18 54
-24 9 -2 41 -11 70 -19 50 -15 376 -104 408 -111 29 -7 176 -46 227 -61 l51
-15 -10 -32 c-5 -18 -13 -48 -18 -67 -4 -19 -15 -56 -23 -82 -8 -27 -13 -48
-12 -48 2 0 -4 -24 -14 -52 -10 -29 -18 -55 -19 -58 -2 -15 -17 -77 -43 -172
-17 -60 -32 -116 -34 -125 -2 -10 -13 -51 -24 -92 -11 -41 -19 -76 -18 -78 2
-1 79 41 173 95 93 54 176 101 184 105 8 4 46 26 84 50 67 41 71 44 88 102 9
33 20 71 23 85 2 14 19 75 35 135 41 146 41 147 45 172 2 12 6 26 9 31 2 4 21
69 40 143 19 74 39 145 44 159 9 23 10 22 21 -25 15 -65 17 -73 31 -126 12
-42 14 -51 20 -74 1 -5 9 -32 17 -59 8 -27 16 -58 18 -68 2 -11 23 -87 45
-169 23 -82 44 -162 46 -176 3 -14 9 -33 13 -42 9 -16 11 -23 11 -40 0 -7 110
-74 262 -159 20 -12 54 -31 75 -44 21 -13 49 -29 63 -36 14 -7 43 -24 65 -37
44 -27 60 -31 49 -13 -4 6 -11 28 -15 47 -4 20 -24 97 -44 171 -20 74 -38 143
-40 153 -2 9 -6 21 -9 25 -3 5 -8 22 -11 38 -3 16 -14 63 -26 104 -11 41 -24
91 -29 110 -4 19 -15 60 -23 90 -9 30 -14 56 -12 58 3 3 93 28 165 47 70 17
102 26 150 38 134 36 262 71 345 94 81 22 112 30 139 32 17 2 -13 27 -49 41
-19 7 -35 17 -35 22 0 4 -5 8 -10 8 -6 0 -36 16 -66 35 -30 19 -56 35 -58 35
-2 0 -66 36 -142 81 -158 92 -134 89 -314 39 -41 -11 -83 -23 -92 -25 -10 -2
-62 -16 -115 -31 -54 -15 -105 -28 -113 -29 -8 -1 -22 -5 -30 -8 -16 -5 -128
-36 -158 -42 -9 -2 -41 -10 -69 -18 -29 -8 -53 -11 -53 -8 0 3 131 137 292
296 l292 290 1 293 c0 160 -3 292 -6 292 -4 0 -137 -130 -296 -290 -160 -159
-293 -290 -297 -290 -4 0 -140 132 -302 294 -173 173 -294 287 -295 278z"/>
<path d="M665 2161 c-6 -5 -37 -23 -70 -41 -95 -52 -121 -67 -162 -93 -21 -13
-45 -26 -53 -30 -8 -4 -33 -18 -55 -31 -22 -14 -64 -37 -92 -53 -29 -15 -53
-30 -53 -34 0 -5 55 -23 105 -34 6 -2 60 -16 120 -33 61 -17 214 -59 340 -92
127 -34 231 -63 233 -65 2 -1 -4 -31 -13 -66 -10 -35 -19 -72 -20 -82 -2 -10
-9 -32 -14 -50 -15 -46 -51 -178 -57 -207 -3 -14 -9 -39 -15 -56 -5 -17 -12
-40 -14 -50 -2 -10 -20 -77 -40 -149 -43 -158 -43 -163 -9 -136 15 12 31 21
37 21 6 0 18 6 26 14 9 7 41 27 71 43 30 16 67 37 83 46 60 37 72 44 77 43 3
0 19 9 35 20 17 12 57 36 90 54 33 18 61 34 63 35 3 2 58 199 67 240 11 45 15
63 36 135 28 100 39 140 45 169 3 14 7 28 10 33 6 9 16 55 17 76 0 6 3 12 7
12 4 0 7 6 7 13 1 16 10 54 22 96 9 29 8 36 -7 47 -13 9 -80 26 -94 24 -2 0
-29 8 -60 19 -32 11 -58 18 -58 16 0 -1 -21 4 -47 12 -51 16 -181 50 -222 59
-14 3 -28 7 -33 10 -5 3 -18 7 -31 10 -12 2 -62 15 -112 30 -108 31 -148 37
-160 25z"/>
<path d="M4330 2154 c-297 -81 -458 -124 -486 -129 -12 -3 -59 -16 -105 -29
-120 -34 -143 -39 -152 -38 -18 5 -17 -31 3 -98 12 -40 23 -80 25 -89 2 -9 15
-61 30 -116 15 -55 29 -111 31 -124 3 -14 7 -28 10 -33 3 -4 7 -16 9 -25 2
-10 13 -54 24 -98 12 -44 31 -114 41 -155 21 -79 35 -97 107 -135 21 -11 89
-50 152 -87 62 -38 115 -68 116 -68 2 0 38 -20 79 -45 42 -25 78 -45 80 -45 3
0 0 16 -6 36 -5 20 -11 44 -13 53 -4 18 -23 90 -55 203 -11 43 -23 85 -25 95
-2 10 -21 79 -41 153 -20 74 -37 142 -39 150 -2 8 -10 39 -18 68 l-14 52 41
11 c23 5 60 16 83 24 23 7 44 11 46 8 3 -2 19 3 36 12 17 8 31 14 31 11 0 -2
27 4 60 14 33 10 60 16 60 14 0 -3 8 0 18 5 11 6 30 12 43 14 13 3 44 10 69
17 25 7 52 14 60 16 8 2 49 13 90 24 41 11 84 23 95 25 11 3 34 9 50 13 l30 9
-40 25 c-22 13 -65 38 -95 54 -30 16 -57 32 -60 35 -3 3 -25 17 -50 31 -101
57 -125 70 -135 78 -5 4 -39 23 -75 42 -62 33 -67 34 -110 22z"/>
<path d="M2231 1056 l-295 -295 0 -295 c-1 -163 1 -296 4 -296 3 0 137 133
299 295 l294 294 296 -298 297 -298 1 295 2 296 -152 154 c-84 84 -216 218
-295 298 -78 79 -146 144 -150 144 -4 0 -140 -132 -301 -294z"/>
</g>
</svg>
